<?xml version="1.0" encoding="utf-8"?>
<!-- Generator: Adobe Illustrator 24.1.3, SVG Export Plug-In . SVG Version: 6.00 Build 0)  -->
<svg version="1.1" id="Layer_1" xmlns="http://www.w3.org/2000/svg" xmlns:xlink="http://www.w3.org/1999/xlink" x="0px" y="0px"
	 viewBox="0 0 291 217" style="enable-background:new 0 0 291 217;" xml:space="preserve">
<g>
	<g>
		<path d="M41.46,94.5c0.72,0.09,1.46,0.13,2.19,0.13c0.45,0,0.91-0.02,1.37-0.05C43.85,94.54,42.66,94.5,41.46,94.5L41.46,94.5z"/>
	</g>
	<g>
		<path d="M105.23,144.17c0.42,1.15,0.68,2.3,0.88,3.47c0.21,1.16,0.31,2.33,0.4,3.49c0.05,1.17,0.09,2.34,0.03,3.52
			c-0.05,1.18-0.16,2.36-0.44,3.55l-0.1,0.01l-0.48-7.01l-0.38-7.01L105.23,144.17z"/>
	</g>
	<g>
		<path d="M131.77,144.15c0.41,1.38,0.59,2.78,0.58,4.19c-0.04,0.7-0.15,1.41-0.15,2.12c0,0.7,0.1,1.4,0.22,2.1
			c0.27,1.39,0.39,2.79,0.47,4.19c0.03,1.4-0.03,2.81-0.27,4.23c0,0.03-0.03,0.05-0.06,0.04c-0.02,0-0.04-0.02-0.04-0.04
			c-0.39-1.39-0.58-2.78-0.7-4.18c-0.06-1.4-0.08-2.81,0.05-4.22c0.05-0.71,0.08-1.41,0-2.11c-0.07-0.7-0.25-1.39-0.36-2.09
			c-0.15-1.4-0.12-2.81,0.15-4.23c0.01-0.03,0.03-0.05,0.06-0.04C131.75,144.12,131.76,144.13,131.77,144.15z"/>
	</g>
	<g>
		<polygon points="115.17,159.09 115.6,174.07 114.17,159.15 		"/>
	</g>
	<g>
		<path d="M156.33,151.71c0.62,2.62,1.22,5.24,1.78,7.87c0.29,1.31,0.64,2.62,0.82,3.95c0.17,1.34,0.31,2.68,0.28,4.05l-0.1,0.02
			c-0.51-1.27-0.85-2.58-1.16-3.89c-0.3-1.31-0.43-2.65-0.62-3.99c-0.39-2.66-0.76-5.33-1.1-8L156.33,151.71z"/>
	</g>
	<g>
		<path d="M143.69,145.25c0.8,2.25,1.29,4.56,1.72,6.87c0.39,2.32,0.71,4.66,0.73,7.05c-0.8-2.25-1.29-4.56-1.72-6.87
			C144.02,149.98,143.7,147.64,143.69,145.25z"/>
	</g>
	<g>
		<path d="M129.31,175.05c0.7,2.13,1.09,4.29,1.42,6.47c0.29,2.18,0.51,4.38,0.43,6.61c-0.7-2.13-1.1-4.29-1.42-6.47
			C129.45,179.48,129.23,177.29,129.31,175.05z"/>
	</g>
	<g>
		<path d="M144.83,168.94c0.7,2.13,1.09,4.29,1.42,6.47c0.29,2.18,0.51,4.38,0.43,6.61c-0.7-2.13-1.1-4.29-1.42-6.47
			C144.97,173.37,144.75,171.17,144.83,168.94z"/>
	</g>
	<g>
		<path d="M168.36,147.53c0.62,2.62,1.22,5.24,1.78,7.87c0.29,1.31,0.64,2.62,0.82,3.95c0.17,1.34,0.31,2.68,0.28,4.05l-0.1,0.02
			c-0.51-1.27-0.85-2.58-1.16-3.89c-0.3-1.31-0.43-2.65-0.62-3.99c-0.39-2.66-0.76-5.33-1.1-8L168.36,147.53z"/>
	</g>
	<g>
		<path d="M121.38,187.06c0.41,1.38,0.59,2.78,0.58,4.19c-0.04,0.7-0.15,1.41-0.15,2.12c0,0.7,0.1,1.4,0.22,2.1
			c0.27,1.39,0.39,2.79,0.47,4.19c0.03,1.4-0.03,2.81-0.27,4.23c0,0.03-0.03,0.05-0.06,0.04c-0.02,0-0.04-0.02-0.04-0.04
			c-0.39-1.39-0.58-2.78-0.7-4.18c-0.06-1.4-0.08-2.81,0.05-4.22c0.05-0.71,0.08-1.41,0-2.11c-0.07-0.7-0.25-1.39-0.36-2.09
			c-0.15-1.4-0.12-2.81,0.15-4.23c0.01-0.03,0.03-0.05,0.06-0.04C121.36,187.03,121.37,187.05,121.38,187.06z"/>
	</g>
	<g>
		<path d="M157.36,175.53c0.62,2.62,1.22,5.24,1.78,7.87c0.29,1.31,0.64,2.62,0.82,3.95c0.17,1.34,0.31,2.68,0.28,4.05l-0.1,0.02
			c-0.51-1.27-0.85-2.58-1.16-3.89c-0.3-1.31-0.43-2.65-0.62-3.99c-0.39-2.66-0.76-5.33-1.1-8L157.36,175.53z"/>
	</g>
	<g>
		<path d="M110.83,30.42c8.04,0,16.55,3.46,23.97,9.75c7.95,6.74,13.79,15.62,19.44,24.21l0.67,1.01l0.87-0.84
			c7.01-6.82,14.27-13.88,22.98-18.61c6.24-3.38,12.8-5.17,18.96-5.17c3.2,0,6.25,0.49,9.09,1.46c9.08,3.09,16.1,11.55,17.48,21.03
			c1.38,9.49-2.94,19.59-10.75,25.15l-3.23,2.3l3.93-0.49c5.41-0.67,11.55-1.44,17.46-1.44c4.41,0,8.3,0.42,11.91,1.27
			c10.42,2.48,18.61,9.47,20.88,17.82c3.29,12.13-5.98,24.77-16.84,29.98c-9.64,4.62-20.55,5.26-30.9,5.26
			c-2.25,0-4.51-0.03-6.63-0.07c-13.39-0.21-27.04-0.56-40.24-0.9c-20.86-0.54-42.43-1.1-63.62-1.1c-6.32,0-12.46,0.05-18.26,0.15
			c-4.47,0.08-9.09,0.52-13.55,0.94c-4.96,0.47-10.08,0.96-15.06,0.96c-4.15,0-7.78-0.34-11.13-1.03
			c-8.5-1.76-16.78-7.83-20.13-14.75c-2.27-4.67-2.24-9.38,0.06-14c3.7-7.42,12.64-11.02,27.31-11.02l0.56,0
			c0.77,0.09,1.56,0.14,2.33,0.14c0.49,0,0.99-0.02,1.48-0.06l-0.04-2c-1.29-0.05-2.48-0.08-3.65-0.08
			c-9.81-1.2-18.33-10.1-19.41-20.28c-1.16-10.95,5.5-22.42,16.18-27.89c4.94-2.53,10.5-3.81,16.52-3.81
			c5.7,0,11.58,1.19,17.01,3.45l1.4,0.58l-0.02-1.52c-0.13-9.43,8.31-18.44,18.81-20.08C108.03,30.53,109.43,30.42,110.83,30.42
			L110.83,30.42 M110.83,29.42c-1.43,0-2.87,0.11-4.3,0.33c-10.36,1.62-19.8,10.6-19.66,21.08c-5.48-2.27-11.46-3.52-17.39-3.52
			c-5.89,0-11.73,1.23-16.98,3.92c-10.53,5.39-17.97,17.12-16.72,28.88c1.11,10.53,10.03,19.95,20.34,21.18
			c1.24,0.01,2.47,0.04,3.67,0.08c-0.47,0.04-0.94,0.05-1.4,0.05c-0.76,0-1.52-0.05-2.27-0.14c-0.21,0-0.41,0-0.62,0
			c-11.18,0-23.38,1.93-28.2,11.57c-7.17,14.37,8.09,27.54,20.76,30.17c3.72,0.77,7.51,1.05,11.33,1.05c9.53,0,19.26-1.74,28.63-1.9
			c6.08-0.1,12.16-0.15,18.24-0.15c34.59,0,69.29,1.47,103.84,2.01c2.2,0.03,4.42,0.07,6.65,0.07c10.8,0,21.69-0.73,31.34-5.36
			c11.64-5.58,20.76-18.69,17.37-31.14c-2.61-9.62-11.92-16.23-21.62-18.53c-3.99-0.95-8.05-1.3-12.14-1.3
			c-5.86,0-11.77,0.72-17.59,1.45c8.12-5.77,12.6-16.26,11.16-26.11c-1.44-9.85-8.73-18.62-18.15-21.84
			c-3.05-1.04-6.22-1.51-9.41-1.51c-6.7,0-13.5,2.07-19.44,5.29c-8.78,4.76-16.05,11.81-23.21,18.77
			c-5.76-8.76-11.63-17.64-19.63-24.42C128.55,33.57,119.75,29.42,110.83,29.42L110.83,29.42z"/>
	</g>
</g>
</svg>
