<?xml version="1.0" encoding="utf-8"?>
<!-- Generator: Adobe Illustrator 24.1.3, SVG Export Plug-In . SVG Version: 6.00 Build 0)  -->
<svg version="1.1" id="Layer_1" xmlns="http://www.w3.org/2000/svg" xmlns:xlink="http://www.w3.org/1999/xlink" x="0px" y="0px"
	 viewBox="0 0 252 219" style="enable-background:new 0 0 252 219;" xml:space="preserve">
<style type="text/css">
	.st0{fill:#FFFFFF;}
	.st1{fill:none;stroke:#000000;stroke-miterlimit:10;}
	.st2{fill:#FFFFFF;stroke:#000000;stroke-miterlimit:10;}
</style>
<g>
	<g>
		<g>
			<path class="st0" d="M125.63,154.19c-1.03,0-2.08-0.03-3.12-0.1c-25.88-1.7-45.56-24.13-43.86-50.01
				c1.61-24.65,22.21-43.96,46.89-43.96c1.03,0,2.08,0.03,3.12,0.1c25.88,1.69,45.56,24.13,43.86,50.01
				C170.91,134.88,150.31,154.19,125.63,154.19z"/>
			<path d="M125.54,59.62v1c1.02,0,2.06,0.03,3.08,0.1c25.6,1.68,45.07,23.87,43.4,49.48c-1.6,24.39-21.97,43.5-46.39,43.5
				c-1.02,0-2.06-0.03-3.09-0.1c-12.4-0.81-23.75-6.41-31.94-15.75c-8.2-9.34-12.26-21.32-11.45-33.73
				c1.6-24.39,21.97-43.49,46.39-43.5L125.54,59.62 M125.54,59.62c-24.83,0-45.74,19.29-47.39,44.43
				c-1.72,26.2,18.13,48.82,44.33,50.54c1.06,0.07,2.11,0.1,3.15,0.1c24.83,0,45.74-19.29,47.39-44.43
				c1.72-26.2-18.13-48.82-44.33-50.54C127.63,59.65,126.58,59.62,125.54,59.62L125.54,59.62z"/>
		</g>
		<path class="st1" d="M125.94,52.45c-0.48-5.57-0.96-11.15-1.43-16.72"/>
		<path class="st1" d="M180.26,108.5c7.02-0.24,14.03-0.48,21.05-0.73c-1.05-0.29-2.11-0.57-3.16-0.86"/>
		<path class="st1" d="M48.38,113.47c7.14-0.7,14.28-1.41,21.42-2.11"/>
		<path class="st1" d="M130.34,180.83c-0.17-6.71-0.35-13.41-0.52-20.12c-1.01-0.03-2.03-0.05-3.04-0.08"/>
		<path class="st1" d="M171.93,78.62c4.75-3.97,9.5-7.93,14.25-11.9"/>
		<path class="st1" d="M72.3,65.22c3.55,2.01,7.09,4.03,10.64,6.04"/>
		<path class="st1" d="M82.38,163.95c2.88-5.09,5.76-10.18,8.65-15.26"/>
		<path class="st1" d="M171.2,139.76c5.89,4.04,11.78,8.08,17.66,12.12"/>
	</g>
	<circle class="st1" cx="138.06" cy="88.73" r="7.13"/>
	<circle class="st1" cx="104.79" cy="88.73" r="7.13"/>
	<path class="st2" d="M149.35,114.08c0,13.95-11.3,25.25-25.25,25.25s-25.25-11.3-25.25-25.25c0-0.14,0-0.27,0.01-0.4h50.49
		C149.35,113.81,149.35,113.95,149.35,114.08z"/>
</g>
</svg>
